#N canvas 557 23 581 775 10;
#N canvas 248 23 843 760 snare 0;
#X obj 264 289 noise~;
#X obj 249 697 dac~;
#X obj 249 563 -~;
#X obj 193 344 line~;
#X obj 322 651 metro 100;
#X obj 322 624 tgl 15 0 empty empty empty 17 7 0 10 -262144 -1 -1 1
1;
#X obj 294 457 abs~;
#X obj 294 434 phasor~;
#X floatatom 294 409 5 0 0 0 - - -, f 5;
#X obj 249 607 hip~;
#X floatatom 279 580 5 0 0 0 - - -, f 5;
#X text 315 579 frequency threshond;
#X text 346 625 high pass filter on/off;
#X obj 357 450 hsl 128 15 0 1 0 0 empty empty empty -2 -8 0 10 -262144
-1 -1 1295 1;
#X obj 264 353 *~;
#X obj 264 85 f;
#X obj 300 85 + 1, f 5;
#X obj 264 159 hradio 15 1 0 8 empty empty empty 0 -8 0 10 -262144
-1 -1 0;
#X obj 296 211 f;
#X obj 311 320 hsl 128 15 0 1 0 0 empty empty empty -2 -8 0 10 -262144
-1 -1 5182 1;
#X floatatom 354 476 5 0 0 0 - - -, f 5;
#X floatatom 308 346 5 0 0 0 - - -, f 5;
#X obj 249 517 *~;
#X obj 294 491 *~;
#N canvas 0 22 450 278 (subpatch) 0;
#X array hip 1000 float 5;
#A 0 0 0 0 0 0 0 0 0 0 0 0 0 0 0 0 0 0 0 0 0 0 0 0 0 0 0 0 0 0 0 0
0 0 0 0 0 0 0 0 0 0 0 0 0 0 0 0 0 0 0 0 0 0 0 0 0 0 0 0 0 0 0 0 0 0
0 0 0 0 0 0 0 0 0 0 0 0 0 0 0 0 0 0 0 0 0 0 0 0 0 0 0 0 0 0 0 0 0 0
0 0 0 0 0 0 0 0 0 0 0 0 0 0 0 0 0 0 0 0 0 0 0 0 0 0 0 0 0 0 0 0 0 0
0 0 0 0 0 0 0 0 0 0 0 0 0 0 0 0 0 0 0 0 0 0 0 0 0 0 0 0 0 0 0 0 0 0
0 0 0 0 0 0 0 0 0 0 0 0 0 0 0 0 0 0 0 0 0 0 0 0 0 0 0 0 0 0 0 0 0 0
0 0 0 0 0 0 0 0 0 0 0 0 0 0 0 0 0 0 0 0 0 0 0 0 0 0 0 0 0 0 0 0 0 0
0 0 0 0 0 0 0 0 0 0 0 0 0 0 0 0 0 0 0 0 0 0 0 0 0 0 0 0 0 0 0 0 0 0
0 0 0 0 0 0 0 0 0 0 0 0 0 0 0 0 0 0 0 0 0 0 0 0 0 0 0 0 0 0 0 0 0 0
0 0 0 0 0 0 0 0 0 0 0 0 0 0 0 0 0 0 0 0 0 0 0 0 0 0 0 0 0 0 0 0 0 0
0 0 0 0 0 0 0 0 0 0 0 0 0 0 0 0 0 0 0 0 0 0 0 0 0 0 0 0 0 0 0 0 0 0
0 0 0 0 0 0 0 0 0 0 0 0 0 0 0 0 0 0 0 0 0 0 0 0 0 0 0 0 0 0 0 0 0 0
0 0 0 0 0 0 0 0 0 0 0 0 0 0 0 0 0 0 0 0 0 0 0 0 0 0 0 0 0 0 0 0 0 0
0 0 0 0 0 0 0 0 0 0 0 0 0 0 0 0 0 0 0 0 0 0 0 0 0 0 0 0 0 0 0 0 0 0
0 0 0 0 0 0 0 0 0 0 0 0 0 0 0 0 0 0 0 0 0 0 0 0 0 0 0 0 0 0 0 0 0 0
0 0 0 0 0 0 0 0 0 0 0 0 0 0 0 0 0 0 0 0 0 0 0 0 0 0 0 0 0 0 0 0 0 0
0 0 0 0 0 0 0 0 0 0 0 0 0 0 0 0 0 0 0 0 0 0 0 0 0 0 0 0 0 0 0 0 0 0
0 0 0 0 0 0 0 0 0 0 0 0 0 0 0 0 0 0 0 0 0 0 0 0 0 0 0 0 0 0 0 0 0 0
0 0 0 0 0 0 0 0 0 0 0 0 0 0 0 0 0 0 0 0 0 0 0 0 0 0 0 0 0 0 0 0 0 0
0 0 0 0 0 0 0 0 0 0 0 0 0 0 0 0 0 0 0 0 0 0 0 0 0 0 0 0 0 0 0 0 0 0
0 0 0 0 0 0 0 0 0 0 0 0 0 0 0 0 0 0 0 0 0 0 0 0 0 0 0 0 0 0 0 0 0 0
0 0 0 0 0 0 0 0 0 0 0 0 0 0 0 0 0 0 0 0 0 0 0 0 0 0 0 0 0 0 0 0 0 0
0 0 0 0 0 0 0 0 0 0 0 0 0 0 0 0 0 0 0 0 0 0 0 0 0 0 0 0 0 0 0 0 0 0
0 0 0 0 0 0 0 0 0 0 0 0 0 0 0 0 0 0 0 0 0 0 0 0 0 0 0 0 0 0 0 0 0 0
0 0 0 0 0 0 0 0 0 0 0 0 0 0 0 0 0 0 0 0 0 0 0 0 0 0 0 0 0 0 0 0 0 0
0 0 0 0 0 0 0 0 0 0 0 0 0 0 0 0 0 0 0 0 0 0 0 0 0 0 0 0 0 0 0 0 0 0
0 0 0 0 0 0 0 0 0 0 0 0 0 0 0 0 0 0 0 0 0 0 0 0 0 0 0 0 0 0 0 0 0 0
0 0 0 0 0 0 0 0 0 0 0 0 0 0 0 0 0 0 0 0 0 0 0 0 0 0 0 0 0 0 0 0 0 0
0 0 0 0 0 0 0 0 0 0 0 0 0 0 0 0 0 0 0 0 0 0 0 0 0 0 0 0 0 0 0 0 0 0
0 0 0 0 0 0 0 0 0 0 0 0 0 0 0 0 0;
#X coords 0 -500 1000 500 200 140 1 0 0;
#X restore 564 213 graph;
#X obj 322 680 tabwrite~ hip;
#X obj 249 540 *~;
#X obj 327 516 hsl 128 15 0 1 0 0 empty empty empty -2 -8 0 10 -262144
-1 -1 470 1;
#X floatatom 324 540 5 0 0 0 - - -, f 5;
#X text 416 429 phasor vol;
#X text 367 299 noise vol;
#X text 397 495 overall vol;
#X obj 264 8 r onOffSnare;
#X text 332 402 phasor frequency;
#X obj 264 63 metro 500;
#X obj 740 417 loadbang;
#X msg 294 384 171;
#X msg 322 602 1;
#X obj 264 126 mod 8;
#X obj 264 179 select 0 1 2 3 4 5 6 7;
#X obj 360 211 f;
#X msg 201 90 0;
#X obj 201 63 loadbang;
#N canvas 311 159 882 576 reverb 0;
#X obj 185 205 inlet~;
#X obj 185 259 +~;
#X obj 185 290 +~;
#X obj 185 370 *~ 0.4;
#X obj 36 310 outlet~ l;
#X obj 99 310 outlet~ r;
#X obj 229 260 +~;
#X obj 216 290 -~;
#X obj 185 326 +~;
#X obj 216 326 +~;
#X obj 251 325 -~;
#X obj 286 326 -~;
#X obj 266 290 +~;
#X obj 301 290 -~;
#X obj 216 390 *~ 0.37;
#X obj 251 410 *~ 0.333;
#X obj 286 430 *~ 0.3;
#X obj 286 457 delwrite~ DS 1000;
#X obj 251 477 delwrite~ CS 1000;
#X obj 216 497 delwrite~ BS 1000;
#X obj 185 517 delwrite~ AS 1000;
#X obj 489 279 hsl 200 20 0 1000 0 0 empty empty empty -2 -8 0 10 -262144
-1 -1 1000 1;
#X floatatom 486 306 5 0 0 0 - - -, f 5;
#X obj 488 205 hsl 200 20 0 1000 0 0 empty empty empty -2 -8 0 10 -262144
-1 -1 399 1;
#X floatatom 485 232 5 0 0 0 - - -, f 5;
#X obj 489 134 hsl 200 20 0 1000 0 0 empty empty empty -2 -8 0 10 -262144
-1 -1 541 1;
#X floatatom 486 161 5 0 0 0 - - -, f 5;
#X obj 489 56 hsl 200 20 0 1000 0 0 empty empty empty -2 -8 0 10 -262144
-1 -1 700 1;
#X floatatom 486 86 5 0 0 0 - - -, f 5;
#X obj 847 137 loadbang;
#X obj 356 257 delread~ DS;
#X obj 296 194 delread~ AS;
#X obj 312 215 delread~ BS;
#X obj 340 236 delread~ CS;
#X msg 486 32 35.17;
#X msg 486 111 27.18;
#X msg 485 183 20.05;
#X msg 486 257 50.25;
#X connect 0 0 1 0;
#X connect 0 0 6 0;
#X connect 1 0 2 0;
#X connect 1 0 4 0;
#X connect 1 0 7 0;
#X connect 2 0 8 0;
#X connect 2 0 10 0;
#X connect 3 0 20 0;
#X connect 6 0 5 0;
#X connect 6 0 2 1;
#X connect 6 0 7 1;
#X connect 7 0 9 0;
#X connect 7 0 11 0;
#X connect 8 0 3 0;
#X connect 9 0 14 0;
#X connect 10 0 15 0;
#X connect 11 0 16 0;
#X connect 12 0 10 1;
#X connect 12 0 8 1;
#X connect 13 0 11 1;
#X connect 13 0 9 1;
#X connect 14 0 19 0;
#X connect 15 0 18 0;
#X connect 16 0 17 0;
#X connect 21 0 22 0;
#X connect 21 0 30 0;
#X connect 23 0 24 0;
#X connect 23 0 33 0;
#X connect 25 0 26 0;
#X connect 25 0 32 0;
#X connect 27 0 28 0;
#X connect 27 0 31 0;
#X connect 29 0 34 0;
#X connect 29 0 35 0;
#X connect 29 0 36 0;
#X connect 29 0 37 0;
#X connect 30 0 12 1;
#X connect 30 0 13 1;
#X connect 31 0 1 1;
#X connect 32 0 6 1;
#X connect 33 0 12 0;
#X connect 33 0 13 0;
#X connect 34 0 27 0;
#X connect 35 0 25 0;
#X connect 36 0 23 0;
#X connect 37 0 21 0;
#X restore 249 646 pd reverb;
#X msg 279 556 665;
#X msg 193 314 250 \, 0 100;
#X msg 354 421 0.102;
#X msg 308 293 0.408;
#X msg 324 493 0.037;
#X connect 0 0 14 0;
#X connect 2 0 9 0;
#X connect 3 0 22 0;
#X connect 4 0 25 0;
#X connect 5 0 4 0;
#X connect 6 0 23 0;
#X connect 7 0 6 0;
#X connect 8 0 7 0;
#X connect 9 0 25 0;
#X connect 9 0 43 0;
#X connect 10 0 9 1;
#X connect 13 0 20 0;
#X connect 13 0 23 1;
#X connect 14 0 22 1;
#X connect 15 0 16 0;
#X connect 15 0 38 0;
#X connect 16 0 15 1;
#X connect 17 0 39 0;
#X connect 18 0 45 0;
#X connect 19 0 14 1;
#X connect 19 0 21 0;
#X connect 22 0 26 0;
#X connect 23 0 22 1;
#X connect 26 0 2 0;
#X connect 27 0 26 1;
#X connect 27 0 28 0;
#X connect 32 0 34 0;
#X connect 34 0 15 0;
#X connect 35 0 47 0;
#X connect 35 0 46 0;
#X connect 35 0 48 0;
#X connect 35 0 36 0;
#X connect 35 0 44 0;
#X connect 35 0 37 0;
#X connect 36 0 8 0;
#X connect 37 0 5 0;
#X connect 38 0 17 0;
#X connect 39 0 18 0;
#X connect 39 4 40 0;
#X connect 40 0 45 0;
#X connect 41 0 38 0;
#X connect 42 0 41 0;
#X connect 43 0 1 0;
#X connect 43 1 1 1;
#X connect 44 0 10 0;
#X connect 45 0 3 0;
#X connect 46 0 13 0;
#X connect 47 0 19 0;
#X connect 48 0 27 0;
#X restore 75 335 pd snare;
#X obj 75 278 tgl 15 0 empty empty empty 17 7 0 10 -262144 -1 -1 0
1;
#X obj 75 310 s onOffSnare;
#X obj 74 165 tgl 15 0 empty empty empty 17 7 0 10 -262144 -1 -1 0
1;
#X obj 74 197 s onOffKick;
#N canvas 316 23 728 761 kick 0;
#X obj 168 149 noise~;
#X floatatom 186 439 5 0 0 0 - - -, f 5;
#X obj 153 550 dac~;
#X obj 153 125 line~;
#X obj 153 469 lop~;
#X obj 153 491 lop~;
#X obj 240 510 metro 100;
#X obj 240 483 tgl 15 0 empty empty empty 17 7 0 10 -262144 -1 -1 1
1;
#X text 265 483 low pass filter on/off;
#X obj 181 337 *~;
#X text 276 159 Noise Vol;
#X floatatom 181 272 5 0 0 0 - - -, f 5;
#X obj 181 295 osc~;
#X text 215 242 oscillator frequency;
#X obj 153 437 -~;
#X obj 153 374 *~;
#X obj 168 213 *~;
#X obj 204 179 hsl 128 15 0 1 0 0 empty empty empty -2 -8 0 10 -262144
-1 -1 10389 1;
#X obj 153 -81 f;
#X obj 189 -81 + 1, f 5;
#X obj 153 -7 hradio 15 1 0 8 empty empty empty 0 -8 0 10 -262144 -1
-1 7;
#X obj 153 47 f;
#X obj 217 47 f;
#X obj 241 542 tabwrite~ lop;
#X obj 153 -160 r onOffKick;
#X floatatom 212 206 5 0 0 0 - - -, f 5;
#X text 225 439 frequency threshold;
#N canvas 0 22 450 278 (subpatch) 0;
#X array lop 1000 float 5;
#A 0 0 0 0 0 0 0 0 0 0 0 0 0 0 0 0 0 0 0 0 0 0 0 0 0 0 0 0 0 0 0 0
0 0 0 0 0 0 0 0 0 0 0 0 0 0 0 0 0 0 0 0 0 0 0 0 0 0 0 0 0 0 0 0 0 0
0 0 0 0 0 0 0 0 0 0 0 0 0 0 0 0 0 0 0 0 0 0 0 0 0 0 0 0 0 0 0 0 0 0
0 0 0 0 0 0 0 0 0 0 0 0 0 0 0 0 0 0 0 0 0 0 0 0 0 0 0 0 0 0 0 0 0 0
0 0 0 0 0 0 0 0 0 0 0 0 0 0 0 0 0 0 0 0 0 0 0 0 0 0 0 0 0 0 0 0 0 0
0 0 0 0 0 0 0 0 0 0 0 0 0 0 0 0 0 0 0 0 0 0 0 0 0 0 0 0 0 0 0 0 0 0
0 0 0 0 0 0 0 0 0 0 0 0 0 0 0 0 0 0 0 0 0 0 0 0 0 0 0 0 0 0 0 0 0 0
0 0 0 0 0 0 0 0 0 0 0 0 0 0 0 0 0 0 0 0 0 0 0 0 0 0 0 0 0 0 0 0 0 0
0 0 0 0 0 0 0 0 0 0 0 0 0 0 0 0 0 0 0 0 0 0 0 0 0 0 0 0 0 0 0 0 0 0
0 0 0 0 0 0 0 0 0 0 0 0 0 0 0 0 0 0 0 0 0 0 0 0 0 0 0 0 0 0 0 0 0 0
0 0 0 0 0 0 0 0 0 0 0 0 0 0 0 0 0 0 0 0 0 0 0 0 0 0 0 0 0 0 0 0 0 0
0 0 0 0 0 0 0 0 0 0 0 0 0 0 0 0 0 0 0 0 0 0 0 0 0 0 0 0 0 0 0 0 0 0
0 0 0 0 0 0 0 0 0 0 0 0 0 0 0 0 0 0 0 0 0 0 0 0 0 0 0 0 0 0 0 0 0 0
0 0 0 0 0 0 0 0 0 0 0 0 0 0 0 0 0 0 0 0 0 0 0 0 0 0 0 0 0 0 0 0 0 0
0 0 0 0 0 0 0 0 0 0 0 0 0 0 0 0 0 0 0 0 0 0 0 0 0 0 0 0 0 0 0 0 0 0
0 0 0 0 0 0 0 0 0 0 0 0 0 0 0 0 0 0 0 0 0 0 0 0 0 0 0 0 0 0 0 0 0 0
0 0 0 0 0 0 0 0 0 0 0 0 0 0 0 0 0 0 0 0 0 0 0 0 0 0 0 0 0 0 0 0 0 0
0 0 0 0 0 0 0 0 0 0 0 0 0 0 0 0 0 0 0 0 0 0 0 0 0 0 0 0 0 0 0 0 0 0
0 0 0 0 0 0 0 0 0 0 0 0 0 0 0 0 0 0 0 0 0 0 0 0 0 0 0 0 0 0 0 0 0 0
0 0 0 0 0 0 0 0 0 0 0 0 0 0 0 0 0 0 0 0 0 0 0 0 0 0 0 0 0 0 0 0 0 0
0 0 0 0 0 0 0 0 0 0 0 0 0 0 0 0 0 0 0 0 0 0 0 0 0 0 0 0 0 0 0 0 0 0
0 0 0 0 0 0 0 0 0 0 0 0 0 0 0 0 0 0 0 0 0 0 0 0 0 0 0 0 0 0 0 0 0 0
0 0 0 0 0 0 0 0 0 0 0 0 0 0 0 0 0 0 0 0 0 0 0 0 0 0 0 0 0 0 0 0 0 0
0 0 0 0 0 0 0 0 0 0 0 0 0 0 0 0 0 0 0 0 0 0 0 0 0 0 0 0 0 0 0 0 0 0
0 0 0 0 0 0 0 0 0 0 0 0 0 0 0 0 0 0 0 0 0 0 0 0 0 0 0 0 0 0 0 0 0 0
0 0 0 0 0 0 0 0 0 0 0 0 0 0 0 0 0 0 0 0 0 0 0 0 0 0 0 0 0 0 0 0 0 0
0 0 0 0 0 0 0 0 0 0 0 0 0 0 0 0 0 0 0 0 0 0 0 0 0 0 0 0 0 0 0 0 0 0
0 0 0 0 0 0 0 0 0 0 0 0 0 0 0 0 0 0 0 0 0 0 0 0 0 0 0 0 0 0 0 0 0 0
0 0 0 0 0 0 0 0 0 0 0 0 0 0 0 0 0 0 0 0 0 0 0 0 0 0 0 0 0 0 0 0 0 0
0 0 0 0 0 0 0 0 0 0 0 0 0 0 0 0 0;
#X coords 0 500 1000 -500 196 151 1 0 0;
#X restore 432 55 graph;
#X obj 230 290 hsl 128 15 0 1 0 0 empty empty empty -2 -8 0 10 -262144
-1 -1 1283 1;
#X floatatom 238 317 5 0 0 0 - - -, f 5;
#X text 313 270 Osc Vol;
#X obj 153 401 *~;
#X obj 216 365 hsl 128 15 0 1 0 0 empty empty empty -2 -8 0 10 -262144
-1 -1 2984 1;
#X floatatom 212 394 5 0 0 0 - - -, f 5;
#X obj 153 -103 metro 500;
#X msg 240 458 1;
#X obj 565 276 loadbang;
#X obj 80 -97 loadbang;
#X msg 80 -72 0;
#X obj 153 13 select 0 1 2 3 4 5 6 7;
#X obj 153 -36 mod 8;
#N canvas 251 114 911 561 reverb 0;
#X obj 188 196 inlet~;
#X obj 188 250 +~;
#X obj 188 281 +~;
#X obj 188 361 *~ 0.4;
#X obj 188 508 delwrite~ A 1000;
#X obj 39 301 outlet~ l;
#X obj 102 301 outlet~ r;
#X obj 232 251 +~;
#X obj 219 281 -~;
#X obj 188 317 +~;
#X obj 219 317 +~;
#X obj 254 316 -~;
#X obj 289 317 -~;
#X obj 269 281 +~;
#X obj 304 281 -~;
#X obj 219 381 *~ 0.37;
#X obj 254 401 *~ 0.333;
#X obj 289 421 *~ 0.3;
#X obj 219 488 delwrite~ B 1000;
#X obj 289 448 delwrite~ D 1000;
#X obj 254 468 delwrite~ C 1000;
#X obj 443 301 hsl 200 20 0 1000 0 0 empty empty empty -2 -8 0 10 -262144
-1 -1 900 1;
#X obj 358 251 delread~ D;
#X floatatom 440 328 5 0 0 0 - - -, f 5;
#X obj 442 227 hsl 200 20 0 1000 0 0 empty empty empty -2 -8 0 10 -262144
-1 -1 699 1;
#X floatatom 439 254 5 0 0 0 - - -, f 5;
#X obj 443 156 hsl 200 20 0 1000 0 0 empty empty empty -2 -8 0 10 -262144
-1 -1 641 1;
#X floatatom 440 183 5 0 0 0 - - -, f 5;
#X obj 443 78 hsl 200 20 0 1000 0 0 empty empty empty -2 -8 0 10 -262144
-1 -1 800 1;
#X floatatom 440 108 5 0 0 0 - - -, f 5;
#X obj 343 227 delread~ C;
#X obj 315 206 delread~ B;
#X obj 299 185 delread~ A;
#X msg 440 54 40.2;
#X msg 440 133 32.22;
#X msg 439 205 35.12;
#X msg 440 279 45.22;
#X obj 801 159 loadbang;
#X connect 0 0 1 0;
#X connect 0 0 7 0;
#X connect 1 0 2 0;
#X connect 1 0 5 0;
#X connect 1 0 8 0;
#X connect 2 0 9 0;
#X connect 2 0 11 0;
#X connect 3 0 4 0;
#X connect 7 0 6 0;
#X connect 7 0 2 1;
#X connect 7 0 8 1;
#X connect 8 0 10 0;
#X connect 8 0 12 0;
#X connect 9 0 3 0;
#X connect 10 0 15 0;
#X connect 11 0 16 0;
#X connect 12 0 17 0;
#X connect 13 0 11 1;
#X connect 13 0 9 1;
#X connect 14 0 12 1;
#X connect 14 0 10 1;
#X connect 15 0 18 0;
#X connect 16 0 20 0;
#X connect 17 0 19 0;
#X connect 21 0 22 0;
#X connect 21 0 23 0;
#X connect 22 0 13 1;
#X connect 22 0 14 1;
#X connect 24 0 25 0;
#X connect 24 0 30 0;
#X connect 26 0 27 0;
#X connect 26 0 31 0;
#X connect 28 0 29 0;
#X connect 28 0 32 0;
#X connect 30 0 13 0;
#X connect 30 0 14 0;
#X connect 31 0 7 1;
#X connect 32 0 1 1;
#X connect 33 0 28 0;
#X connect 34 0 26 0;
#X connect 35 0 24 0;
#X connect 36 0 21 0;
#X connect 37 0 33 0;
#X connect 37 0 34 0;
#X connect 37 0 35 0;
#X connect 37 0 36 0;
#X restore 153 521 pd reverb;
#X msg 181 246 73;
#X msg 217 148 0.818;
#X msg 227 267 0.101;
#X msg 186 415 111;
#X msg 212 342 0.235;
#X msg 153 95 150 \, 0 160;
#X obj 240 47 f;
#X connect 0 0 16 0;
#X connect 1 0 4 1;
#X connect 1 0 5 1;
#X connect 3 0 15 0;
#X connect 4 0 5 0;
#X connect 4 0 23 0;
#X connect 5 0 23 0;
#X connect 5 0 41 0;
#X connect 6 0 23 0;
#X connect 7 0 6 0;
#X connect 9 0 15 1;
#X connect 11 0 12 0;
#X connect 12 0 9 0;
#X connect 14 0 4 0;
#X connect 15 0 31 0;
#X connect 16 0 15 1;
#X connect 17 0 16 1;
#X connect 17 0 25 0;
#X connect 18 0 19 0;
#X connect 18 0 40 0;
#X connect 19 0 18 1;
#X connect 20 0 39 0;
#X connect 21 0 47 0;
#X connect 22 0 47 0;
#X connect 24 0 34 0;
#X connect 28 0 29 0;
#X connect 28 0 9 1;
#X connect 31 0 14 0;
#X connect 32 0 33 0;
#X connect 32 0 31 1;
#X connect 34 0 18 0;
#X connect 35 0 7 0;
#X connect 36 0 43 0;
#X connect 36 0 42 0;
#X connect 36 0 44 0;
#X connect 36 0 46 0;
#X connect 36 0 45 0;
#X connect 36 0 35 0;
#X connect 37 0 38 0;
#X connect 38 0 40 0;
#X connect 39 0 21 0;
#X connect 39 4 22 0;
#X connect 39 5 48 0;
#X connect 40 0 20 0;
#X connect 41 0 2 0;
#X connect 41 1 2 1;
#X connect 42 0 11 0;
#X connect 43 0 17 0;
#X connect 44 0 28 0;
#X connect 45 0 1 0;
#X connect 46 0 32 0;
#X connect 47 0 3 0;
#X connect 48 0 47 0;
#X restore 74 222 pd kick;
#N canvas 334 23 875 798 hihat 0;
#X obj 264 289 noise~;
#X obj 249 722 dac~;
#X obj 249 563 -~;
#X obj 95 328 line~;
#X obj 322 651 metro 100;
#X obj 322 624 tgl 15 0 empty empty empty 17 7 0 10 -262144 -1 -1 1
1;
#X obj 294 457 abs~;
#X obj 294 434 phasor~;
#X floatatom 294 409 5 0 0 0 - - -, f 5;
#X obj 249 607 hip~;
#X floatatom 279 580 5 0 0 0 - - -, f 5;
#X text 315 579 frequency threshond;
#X text 346 624 high pass filter on/off;
#X obj 357 460 hsl 128 15 0 1 0 0 empty empty empty -2 -8 0 10 -262144
-1 -1 698 1;
#X obj 264 353 *~;
#X obj 264 85 f;
#X obj 300 85 + 1, f 5;
#X obj 264 159 hradio 15 1 0 8 empty empty empty 0 -8 0 10 -262144
-1 -1 0;
#X obj 264 213 f;
#X obj 291 213 f;
#X obj 319 213 f;
#X obj 346 213 f;
#X obj 249 629 hip~;
#X obj 249 651 hip~;
#X obj 311 321 hsl 128 15 0 1 0 0 empty empty empty -2 -8 0 10 -262144
-1 -1 2197 1;
#X floatatom 354 482 5 0 0 0 - - -, f 5;
#X floatatom 308 346 5 0 0 0 - - -, f 5;
#X obj 249 517 *~;
#X obj 294 491 *~;
#N canvas 0 22 450 278 (subpatch) 0;
#X array hihip 1000 float 5;
#A 0 0 0 0 0 0 0 0 0 0 0 0 0 0 0 0 0 0 0 0 0 0 0 0 0 0 0 0 0 0 0 0
0 0 0 0 0 0 0 0 0 0 0 0 0 0 0 0 0 0 0 0 0 0 0 0 0 0 0 0 0 0 0 0 0 0
0 0 0 0 0 0 0 0 0 0 0 0 0 0 0 0 0 0 0 0 0 0 0 0 0 0 0 0 0 0 0 0 0 0
0 0 0 0 0 0 0 0 0 0 0 0 0 0 0 0 0 0 0 0 0 0 0 0 0 0 0 0 0 0 0 0 0 0
0 0 0 0 0 0 0 0 0 0 0 0 0 0 0 0 0 0 0 0 0 0 0 0 0 0 0 0 0 0 0 0 0 0
0 0 0 0 0 0 0 0 0 0 0 0 0 0 0 0 0 0 0 0 0 0 0 0 0 0 0 0 0 0 0 0 0 0
0 0 0 0 0 0 0 0 0 0 0 0 0 0 0 0 0 0 0 0 0 0 0 0 0 0 0 0 0 0 0 0 0 0
0 0 0 0 0 0 0 0 0 0 0 0 0 0 0 0 0 0 0 0 0 0 0 0 0 0 0 0 0 0 0 0 0 0
0 0 0 0 0 0 0 0 0 0 0 0 0 0 0 0 0 0 0 0 0 0 0 0 0 0 0 0 0 0 0 0 0 0
0 0 0 0 0 0 0 0 0 0 0 0 0 0 0 0 0 0 0 0 0 0 0 0 0 0 0 0 0 0 0 0 0 0
0 0 0 0 0 0 0 0 0 0 0 0 0 0 0 0 0 0 0 0 0 0 0 0 0 0 0 0 0 0 0 0 0 0
0 0 0 0 0 0 0 0 0 0 0 0 0 0 0 0 0 0 0 0 0 0 0 0 0 0 0 0 0 0 0 0 0 0
0 0 0 0 0 0 0 0 0 0 0 0 0 0 0 0 0 0 0 0 0 0 0 0 0 0 0 0 0 0 0 0 0 0
0 0 0 0 0 0 0 0 0 0 0 0 0 0 0 0 0 0 0 0 0 0 0 0 0 0 0 0 0 0 0 0 0 0
0 0 0 0 0 0 0 0 0 0 0 0 0 0 0 0 0 0 0 0 0 0 0 0 0 0 0 0 0 0 0 0 0 0
0 0 0 0 0 0 0 0 0 0 0 0 0 0 0 0 0 0 0 0 0 0 0 0 0 0 0 0 0 0 0 0 0 0
0 0 0 0 0 0 0 0 0 0 0 0 0 0 0 0 0 0 0 0 0 0 0 0 0 0 0 0 0 0 0 0 0 0
0 0 0 0 0 0 0 0 0 0 0 0 0 0 0 0 0 0 0 0 0 0 0 0 0 0 0 0 0 0 0 0 0 0
0 0 0 0 0 0 0 0 0 0 0 0 0 0 0 0 0 0 0 0 0 0 0 0 0 0 0 0 0 0 0 0 0 0
0 0 0 0 0 0 0 0 0 0 0 0 0 0 0 0 0 0 0 0 0 0 0 0 0 0 0 0 0 0 0 0 0 0
0 0 0 0 0 0 0 0 0 0 0 0 0 0 0 0 0 0 0 0 0 0 0 0 0 0 0 0 0 0 0 0 0 0
0 0 0 0 0 0 0 0 0 0 0 0 0 0 0 0 0 0 0 0 0 0 0 0 0 0 0 0 0 0 0 0 0 0
0 0 0 0 0 0 0 0 0 0 0 0 0 0 0 0 0 0 0 0 0 0 0 0 0 0 0 0 0 0 0 0 0 0
0 0 0 0 0 0 0 0 0 0 0 0 0 0 0 0 0 0 0 0 0 0 0 0 0 0 0 0 0 0 0 0 0 0
0 0 0 0 0 0 0 0 0 0 0 0 0 0 0 0 0 0 0 0 0 0 0 0 0 0 0 0 0 0 0 0 0 0
0 0 0 0 0 0 0 0 0 0 0 0 0 0 0 0 0 0 0 0 0 0 0 0 0 0 0 0 0 0 0 0 0 0
0 0 0 0 0 0 0 0 0 0 0 0 0 0 0 0 0 0 0 0 0 0 0 0 0 0 0 0 0 0 0 0 0 0
0 0 0 0 0 0 0 0 0 0 0 0 0 0 0 0 0 0 0 0 0 0 0 0 0 0 0 0 0 0 0 0 0 0
0 0 0 0 0 0 0 0 0 0 0 0 0 0 0 0 0 0 0 0 0 0 0 0 0 0 0 0 0 0 0 0 0 0
0 0 0 0 0 0 0 0 0 0 0 0 0 0 0 0 0;
#X coords 0 -500 999 500 200 140 1 0 0;
#X restore 563 212 graph;
#X obj 249 540 *~;
#X obj 327 526 hsl 128 15 0 1 0 0 empty empty empty -2 -8 0 10 -262144
-1 -1 991 1;
#X floatatom 324 549 5 0 0 0 - - -, f 5;
#X text 421 441 phasor vol;
#X text 383 297 noise vol;
#X text 387 504 overall vol;
#X text 332 408 phasor frequency;
#X obj 264 63 metro 500;
#X obj 265 7 r onOffHihat;
#X obj 322 680 tabwrite~ hihip;
#X obj 170 328 line~;
#X msg 170 304 300 \, 0 300;
#X obj 800 416 loadbang;
#X msg 354 435 0.055;
#X msg 308 297 0.173;
#X msg 294 387 224;
#X msg 322 599 1;
#X obj 264 126 mod 8;
#X obj 264 179 select 0 1 2 3 4 5 6 7;
#X obj 198 64 loadbang;
#X msg 198 91 0;
#X msg 279 557 900;
#N canvas 485 23 762 521 reverb 0;
#X obj 171 170 inlet~;
#X obj 171 224 +~;
#X obj 171 255 +~;
#X obj 171 335 *~ 0.4;
#X obj 22 275 outlet~ l;
#X obj 85 275 outlet~ r;
#X obj 215 225 +~;
#X obj 202 255 -~;
#X obj 171 291 +~;
#X obj 202 291 +~;
#X obj 237 290 -~;
#X obj 272 291 -~;
#X obj 252 255 +~;
#X obj 287 255 -~;
#X obj 202 355 *~ 0.37;
#X obj 237 375 *~ 0.333;
#X obj 272 395 *~ 0.3;
#X obj 272 422 delwrite~ DH 1000;
#X obj 237 442 delwrite~ CH 1000;
#X obj 202 462 delwrite~ BH 1000;
#X obj 171 482 delwrite~ AH 1000;
#X obj 282 159 delread~ AH;
#X obj 298 180 delread~ BH;
#X obj 327 201 delread~ CH;
#X obj 341 222 delread~ DH;
#X obj 489 279 hsl 200 20 0 1000 0 0 empty empty empty -2 -8 0 10 -262144
-1 -1 1600 1;
#X floatatom 486 306 5 0 0 0 - - -, f 5;
#X obj 488 205 hsl 200 20 0 1000 0 0 empty empty empty -2 -8 0 10 -262144
-1 -1 0 1;
#X floatatom 485 232 5 0 0 0 - - -, f 5;
#X obj 489 134 hsl 200 20 0 1000 0 0 empty empty empty -2 -8 0 10 -262144
-1 -1 1400 1;
#X floatatom 486 161 5 0 0 0 - - -, f 5;
#X obj 489 56 hsl 200 20 0 1000 0 0 empty empty empty -2 -8 0 10 -262144
-1 -1 600 1;
#X floatatom 486 86 5 0 0 0 - - -, f 5;
#X obj 847 137 loadbang;
#X msg 486 257 80.4;
#X msg 485 183 0;
#X msg 486 111 70.35;
#X msg 486 32 30.15;
#X connect 0 0 1 0;
#X connect 0 0 6 0;
#X connect 1 0 2 0;
#X connect 1 0 4 0;
#X connect 1 0 7 0;
#X connect 2 0 8 0;
#X connect 2 0 10 0;
#X connect 3 0 20 0;
#X connect 6 0 5 0;
#X connect 6 0 2 1;
#X connect 6 0 7 1;
#X connect 7 0 9 0;
#X connect 7 0 11 0;
#X connect 8 0 3 0;
#X connect 9 0 14 0;
#X connect 10 0 15 0;
#X connect 11 0 16 0;
#X connect 12 0 10 1;
#X connect 12 0 8 1;
#X connect 13 0 11 1;
#X connect 13 0 9 1;
#X connect 14 0 19 0;
#X connect 15 0 18 0;
#X connect 16 0 17 0;
#X connect 21 0 1 1;
#X connect 22 0 6 1;
#X connect 23 0 12 0;
#X connect 23 0 13 0;
#X connect 24 0 12 1;
#X connect 24 0 13 1;
#X connect 25 0 26 0;
#X connect 25 0 24 0;
#X connect 27 0 28 0;
#X connect 27 0 23 0;
#X connect 29 0 30 0;
#X connect 29 0 22 0;
#X connect 31 0 32 0;
#X connect 31 0 21 0;
#X connect 33 0 37 0;
#X connect 33 0 36 0;
#X connect 33 0 35 0;
#X connect 33 0 34 0;
#X connect 34 0 25 0;
#X connect 35 0 27 0;
#X connect 36 0 29 0;
#X connect 37 0 31 0;
#X restore 249 685 pd reverb;
#X msg 95 304 50 \, 0 100;
#X msg 324 502 0.078;
#X connect 0 0 14 0;
#X connect 2 0 9 0;
#X connect 3 0 27 0;
#X connect 4 0 39 0;
#X connect 5 0 4 0;
#X connect 6 0 28 0;
#X connect 7 0 6 0;
#X connect 8 0 7 0;
#X connect 9 0 22 0;
#X connect 9 0 39 0;
#X connect 10 0 9 1;
#X connect 10 0 22 1;
#X connect 10 0 23 1;
#X connect 13 0 25 0;
#X connect 13 0 28 1;
#X connect 14 0 27 1;
#X connect 15 0 16 0;
#X connect 15 0 47 0;
#X connect 16 0 15 1;
#X connect 17 0 48 0;
#X connect 18 0 53 0;
#X connect 19 0 53 0;
#X connect 20 0 53 0;
#X connect 21 0 53 0;
#X connect 22 0 23 0;
#X connect 22 0 39 0;
#X connect 23 0 39 0;
#X connect 23 0 52 0;
#X connect 24 0 14 1;
#X connect 24 0 26 0;
#X connect 27 0 30 0;
#X connect 28 0 27 1;
#X connect 30 0 2 0;
#X connect 31 0 30 1;
#X connect 31 0 32 0;
#X connect 37 0 15 0;
#X connect 38 0 37 0;
#X connect 40 0 27 0;
#X connect 41 0 40 0;
#X connect 42 0 44 0;
#X connect 42 0 43 0;
#X connect 42 0 54 0;
#X connect 42 0 45 0;
#X connect 42 0 46 0;
#X connect 42 0 51 0;
#X connect 43 0 13 0;
#X connect 44 0 24 0;
#X connect 45 0 8 0;
#X connect 46 0 5 0;
#X connect 47 0 17 0;
#X connect 48 0 18 0;
#X connect 48 1 19 0;
#X connect 48 2 20 0;
#X connect 48 3 21 0;
#X connect 48 4 18 0;
#X connect 48 5 19 0;
#X connect 48 6 20 0;
#X connect 48 7 21 0;
#X connect 49 0 50 0;
#X connect 50 0 47 0;
#X connect 51 0 10 0;
#X connect 52 0 1 0;
#X connect 52 1 1 1;
#X connect 53 0 3 0;
#X connect 54 0 31 0;
#X restore 76 446 pd hihat;
#N canvas 485 23 828 747 crash 0;
#X obj 264 289 noise~;
#X obj 249 714 dac~;
#X obj 249 563 -~;
#X obj 322 651 metro 100;
#X obj 322 624 tgl 15 0 empty empty empty 17 7 0 10 -262144 -1 -1 1
1;
#X obj 294 457 abs~;
#X obj 294 434 phasor~;
#X floatatom 294 409 5 0 0 0 - - -, f 5;
#X obj 249 607 hip~;
#X floatatom 279 580 5 0 0 0 - - -, f 5;
#X text 315 579 frequency threshond;
#X text 343 625 high pass filter on/off;
#X obj 357 460 hsl 128 15 0 1 0 0 empty empty empty -2 -8 0 10 -262144
-1 -1 597 1;
#X obj 264 353 *~;
#X obj 264 85 f;
#X obj 300 85 + 1, f 5;
#X floatatom 264 107 5 0 0 0 - - -, f 5;
#X obj 264 159 hradio 15 1 0 8 empty empty empty 0 -8 0 10 -262144
-1 -1 1;
#X obj 364 206 f;
#X obj 249 629 hip~;
#X obj 249 651 hip~;
#X obj 311 321 hsl 128 15 0 1 0 0 empty empty empty -2 -8 0 10 -262144
-1 -1 3988 1;
#X floatatom 354 485 5 0 0 0 - - -, f 5;
#X floatatom 308 346 5 0 0 0 - - -, f 5;
#X obj 249 517 *~;
#X obj 294 491 *~;
#N canvas 0 22 450 278 (subpatch) 0;
#X array crashhip 1000 float 5;
#A 0 0 0 0 0 0 0 0 0 0 0 0 0 0 0 0 0 0 0 0 0 0 0 0 0 0 0 0 0 0 0 0
0 0 0 0 0 0 0 0 0 0 0 0 0 0 0 0 0 0 0 0 0 0 0 0 0 0 0 0 0 0 0 0 0 0
0 0 0 0 0 0 0 0 0 0 0 0 0 0 0 0 0 0 0 0 0 0 0 0 0 0 0 0 0 0 0 0 0 0
0 0 0 0 0 0 0 0 0 0 0 0 0 0 0 0 0 0 0 0 0 0 0 0 0 0 0 0 0 0 0 0 0 0
0 0 0 0 0 0 0 0 0 0 0 0 0 0 0 0 0 0 0 0 0 0 0 0 0 0 0 0 0 0 0 0 0 0
0 0 0 0 0 0 0 0 0 0 0 0 0 0 0 0 0 0 0 0 0 0 0 0 0 0 0 0 0 0 0 0 0 0
0 0 0 0 0 0 0 0 0 0 0 0 0 0 0 0 0 0 0 0 0 0 0 0 0 0 0 0 0 0 0 0 0 0
0 0 0 0 0 0 0 0 0 0 0 0 0 0 0 0 0 0 0 0 0 0 0 0 0 0 0 0 0 0 0 0 0 0
0 0 0 0 0 0 0 0 0 0 0 0 0 0 0 0 0 0 0 0 0 0 0 0 0 0 0 0 0 0 0 0 0 0
0 0 0 0 0 0 0 0 0 0 0 0 0 0 0 0 0 0 0 0 0 0 0 0 0 0 0 0 0 0 0 0 0 0
0 0 0 0 0 0 0 0 0 0 0 0 0 0 0 0 0 0 0 0 0 0 0 0 0 0 0 0 0 0 0 0 0 0
0 0 0 0 0 0 0 0 0 0 0 0 0 0 0 0 0 0 0 0 0 0 0 0 0 0 0 0 0 0 0 0 0 0
0 0 0 0 0 0 0 0 0 0 0 0 0 0 0 0 0 0 0 0 0 0 0 0 0 0 0 0 0 0 0 0 0 0
0 0 0 0 0 0 0 0 0 0 0 0 0 0 0 0 0 0 0 0 0 0 0 0 0 0 0 0 0 0 0 0 0 0
0 0 0 0 0 0 0 0 0 0 0 0 0 0 0 0 0 0 0 0 0 0 0 0 0 0 0 0 0 0 0 0 0 0
0 0 0 0 0 0 0 0 0 0 0 0 0 0 0 0 0 0 0 0 0 0 0 0 0 0 0 0 0 0 0 0 0 0
0 0 0 0 0 0 0 0 0 0 0 0 0 0 0 0 0 0 0 0 0 0 0 0 0 0 0 0 0 0 0 0 0 0
0 0 0 0 0 0 0 0 0 0 0 0 0 0 0 0 0 0 0 0 0 0 0 0 0 0 0 0 0 0 0 0 0 0
0 0 0 0 0 0 0 0 0 0 0 0 0 0 0 0 0 0 0 0 0 0 0 0 0 0 0 0 0 0 0 0 0 0
0 0 0 0 0 0 0 0 0 0 0 0 0 0 0 0 0 0 0 0 0 0 0 0 0 0 0 0 0 0 0 0 0 0
0 0 0 0 0 0 0 0 0 0 0 0 0 0 0 0 0 0 0 0 0 0 0 0 0 0 0 0 0 0 0 0 0 0
0 0 0 0 0 0 0 0 0 0 0 0 0 0 0 0 0 0 0 0 0 0 0 0 0 0 0 0 0 0 0 0 0 0
0 0 0 0 0 0 0 0 0 0 0 0 0 0 0 0 0 0 0 0 0 0 0 0 0 0 0 0 0 0 0 0 0 0
0 0 0 0 0 0 0 0 0 0 0 0 0 0 0 0 0 0 0 0 0 0 0 0 0 0 0 0 0 0 0 0 0 0
0 0 0 0 0 0 0 0 0 0 0 0 0 0 0 0 0 0 0 0 0 0 0 0 0 0 0 0 0 0 0 0 0 0
0 0 0 0 0 0 0 0 0 0 0 0 0 0 0 0 0 0 0 0 0 0 0 0 0 0 0 0 0 0 0 0 0 0
0 0 0 0 0 0 0 0 0 0 0 0 0 0 0 0 0 0 0 0 0 0 0 0 0 0 0 0 0 0 0 0 0 0
0 0 0 0 0 0 0 0 0 0 0 0 0 0 0 0 0 0 0 0 0 0 0 0 0 0 0 0 0 0 0 0 0 0
0 0 0 0 0 0 0 0 0 0 0 0 0 0 0 0 0 0 0 0 0 0 0 0 0 0 0 0 0 0 0 0 0 0
0 0 0 0 0 0 0 0 0 0 0 0 0 0 0 0 0;
#X coords 0 -500 999 500 200 140 1 0 0;
#X restore 563 212 graph;
#X obj 249 540 *~;
#X obj 327 525 hsl 128 15 0 1 0 0 empty empty empty -2 -8 0 10 -262144
-1 -1 381 1;
#X floatatom 324 549 5 0 0 0 - - -, f 5;
#X text 423 439 phasor vol;
#X text 345 297 noise vol;
#X text 397 504 overall vol;
#X text 332 407 phasor frequency;
#X obj 264 63 metro 500;
#X obj 170 328 line~;
#X obj 322 680 tabwrite~ crashhip;
#X obj 265 7 r onOffCrash;
#X obj 264 179 select 0 1 2 3 5 6 7;
#X obj 264 126 mod 8;
#X obj 675 446 loadbang;
#X msg 294 384 155;
#X msg 354 434 0.047;
#X msg 322 602 1;
#N canvas 270 91 938 620 reverb 0;
#X obj 218 213 inlet~;
#X obj 218 267 +~;
#X obj 218 298 +~;
#X obj 218 378 *~ 0.4;
#X obj 69 318 outlet~ l;
#X obj 132 318 outlet~ r;
#X obj 262 268 +~;
#X obj 249 298 -~;
#X obj 218 334 +~;
#X obj 249 334 +~;
#X obj 284 333 -~;
#X obj 319 334 -~;
#X obj 299 298 +~;
#X obj 334 298 -~;
#X obj 249 398 *~ 0.37;
#X obj 284 418 *~ 0.333;
#X obj 319 438 *~ 0.3;
#X obj 319 465 delwrite~ DC 1000;
#X obj 284 485 delwrite~ CC 1000;
#X obj 249 505 delwrite~ BC 1000;
#X obj 218 525 delwrite~ AC 1000;
#X obj 489 279 hsl 200 20 0 1000 0 0 empty empty empty -2 -8 0 10 -262144
-1 -1 8398 1;
#X floatatom 486 306 5 0 0 0 - - -, f 5;
#X obj 488 205 hsl 200 20 0 1000 0 0 empty empty empty -2 -8 0 10 -262144
-1 -1 699 1;
#X floatatom 485 232 5 0 0 0 - - -, f 5;
#X obj 489 134 hsl 200 20 0 1000 0 0 empty empty empty -2 -8 0 10 -262144
-1 -1 641 1;
#X floatatom 486 161 5 0 0 0 - - -, f 5;
#X obj 489 56 hsl 200 20 0 1000 0 0 empty empty empty -2 -8 0 10 -262144
-1 -1 1700 1;
#X floatatom 486 86 5 0 0 0 - - -, f 5;
#X msg 486 111 32.22;
#X msg 485 183 35.12;
#X obj 847 137 loadbang;
#X obj 389 266 delread~ DC;
#X obj 373 244 delread~ CC;
#X obj 345 223 delread~ BC;
#X obj 329 202 delread~ AC;
#X msg 486 32 85.42;
#X msg 486 257 422;
#X connect 0 0 1 0;
#X connect 0 0 6 0;
#X connect 1 0 2 0;
#X connect 1 0 4 0;
#X connect 1 0 7 0;
#X connect 2 0 8 0;
#X connect 2 0 10 0;
#X connect 3 0 20 0;
#X connect 6 0 5 0;
#X connect 6 0 2 1;
#X connect 6 0 7 1;
#X connect 7 0 9 0;
#X connect 7 0 11 0;
#X connect 8 0 3 0;
#X connect 9 0 14 0;
#X connect 10 0 15 0;
#X connect 11 0 16 0;
#X connect 12 0 10 1;
#X connect 12 0 8 1;
#X connect 13 0 11 1;
#X connect 13 0 9 1;
#X connect 14 0 19 0;
#X connect 15 0 18 0;
#X connect 16 0 17 0;
#X connect 21 0 22 0;
#X connect 21 0 32 0;
#X connect 23 0 24 0;
#X connect 23 0 33 0;
#X connect 25 0 26 0;
#X connect 25 0 34 0;
#X connect 27 0 28 0;
#X connect 29 0 25 0;
#X connect 30 0 23 0;
#X connect 31 0 36 0;
#X connect 31 0 29 0;
#X connect 31 0 30 0;
#X connect 31 0 37 0;
#X connect 32 0 12 1;
#X connect 32 0 13 1;
#X connect 33 0 12 0;
#X connect 33 0 13 0;
#X connect 34 0 6 1;
#X connect 35 0 1 1;
#X connect 36 0 27 0;
#X connect 36 0 35 0;
#X connect 37 0 21 0;
#X restore 249 685 pd reverb;
#X msg 279 552 850;
#X msg 308 293 0.314;
#X msg 170 305 450 \, 0 600;
#X msg 324 503 0.03;
#X connect 0 0 13 0;
#X connect 2 0 8 0;
#X connect 3 0 36 0;
#X connect 4 0 3 0;
#X connect 5 0 25 0;
#X connect 6 0 5 0;
#X connect 7 0 6 0;
#X connect 8 0 19 0;
#X connect 8 0 36 0;
#X connect 9 0 8 1;
#X connect 9 0 19 1;
#X connect 9 0 20 1;
#X connect 12 0 22 0;
#X connect 12 0 25 1;
#X connect 13 0 24 1;
#X connect 14 0 15 0;
#X connect 14 0 16 0;
#X connect 15 0 14 1;
#X connect 16 0 39 0;
#X connect 17 0 38 0;
#X connect 18 0 47 0;
#X connect 19 0 20 0;
#X connect 19 0 36 0;
#X connect 20 0 36 0;
#X connect 20 0 44 0;
#X connect 21 0 13 1;
#X connect 21 0 23 0;
#X connect 24 0 27 0;
#X connect 25 0 24 1;
#X connect 27 0 2 0;
#X connect 28 0 27 1;
#X connect 28 0 29 0;
#X connect 34 0 14 0;
#X connect 35 0 24 0;
#X connect 37 0 34 0;
#X connect 38 0 18 0;
#X connect 39 0 17 0;
#X connect 40 0 46 0;
#X connect 40 0 41 0;
#X connect 40 0 42 0;
#X connect 40 0 48 0;
#X connect 40 0 45 0;
#X connect 40 0 43 0;
#X connect 41 0 7 0;
#X connect 42 0 12 0;
#X connect 43 0 4 0;
#X connect 44 0 1 0;
#X connect 44 1 1 1;
#X connect 45 0 9 0;
#X connect 46 0 21 0;
#X connect 47 0 35 0;
#X connect 48 0 28 0;
#X restore 78 561 pd crash;
#X obj 76 391 tgl 15 0 empty empty empty 17 7 0 10 -262144 -1 -1 0
1;
#X obj 76 421 s onOffHihat;
#X obj 78 506 tgl 15 0 empty empty empty 17 7 0 10 -262144 -1 -1 0
1;
#X obj 78 536 s onOffCrash;
#X text 72 256 The snare comes in on every 3rd beat;
#X text 75 367 The hi hats come in on every beat;
#X text 75 488 The crash comes in on the last beat of the second bar
;
#X text 75 146 The kick drum comes in on every 1st beat;
#X obj 78 624 tgl 15 0 empty empty empty 17 7 0 10 -262144 -1 -1 0
1;
#X obj 78 644 s onOffGuitar;
#N canvas 113 26 1315 764 SweetChildOMine 1;
#X obj 84 113 f;
#X obj 120 113 + 1, f 5;
#X obj 84 179 hradio 20 1 0 32 empty empty empty 0 -8 0 10 -258113
-1 -1 11;
#X obj 84 445 phasor~;
#X obj 84 677 dac~;
#X obj 84 574 bp~ 220 5;
#X obj 133 445 * 1.5;
#X obj 84 91 metro 250;
#X obj 84 35 r onOffGuitar;
#X floatatom 135 512 5 0 0 0 - - -, f 5;
#X obj 84 518 *~;
#X obj 192 484 hsl 128 15 0 1 0 0 empty empty empty -2 -8 0 10 -262144
-1 -1 12700 1;
#X floatatom 189 504 5 0 0 0 - - -, f 5;
#X obj 219 460 loadbang;
#X msg 135 480 5;
#X obj 36 285 f 587.3;
#X obj 85 285 f 1174.7;
#X obj 140 285 f 880;
#X obj 177 285 f 784;
#X obj 214 285 f 1568;
#X obj 294 285 f 1480;
#X obj 257 285 f 880;
#X obj 337 285 f 880;
#N canvas 543 92 621 400 reverb 0;
#X obj 191 36 inlet~;
#X obj 191 90 +~;
#X obj 191 121 +~;
#X obj 191 201 *~ 0.4;
#X obj 42 141 outlet~ l;
#X obj 105 141 outlet~ r;
#X obj 235 91 +~;
#X obj 222 121 -~;
#X obj 191 157 +~;
#X obj 222 157 +~;
#X obj 257 156 -~;
#X obj 292 157 -~;
#X obj 272 121 +~;
#X obj 307 121 -~;
#X obj 222 221 *~ 0.37;
#X obj 257 241 *~ 0.333;
#X obj 292 261 *~ 0.3;
#X obj 302 25 delread~ AG 101;
#X obj 318 46 delread~ BG 143;
#X obj 346 67 delread~ CG 165;
#X obj 362 88 delread~ DG 177;
#X obj 292 288 delwrite~ DG 1000;
#X obj 257 308 delwrite~ CG 1000;
#X obj 222 328 delwrite~ BG 1000;
#X obj 191 348 delwrite~ AG 1000;
#X connect 0 0 1 0;
#X connect 0 0 6 0;
#X connect 1 0 2 0;
#X connect 1 0 4 0;
#X connect 1 0 7 0;
#X connect 2 0 8 0;
#X connect 2 0 10 0;
#X connect 3 0 24 0;
#X connect 6 0 5 0;
#X connect 6 0 2 1;
#X connect 6 0 7 1;
#X connect 7 0 9 0;
#X connect 7 0 11 0;
#X connect 8 0 3 0;
#X connect 9 0 14 0;
#X connect 10 0 15 0;
#X connect 11 0 16 0;
#X connect 12 0 10 1;
#X connect 12 0 8 1;
#X connect 13 0 11 1;
#X connect 13 0 9 1;
#X connect 14 0 23 0;
#X connect 15 0 22 0;
#X connect 16 0 21 0;
#X connect 17 0 1 1;
#X connect 18 0 6 1;
#X connect 19 0 12 0;
#X connect 19 0 13 0;
#X connect 20 0 12 1;
#X connect 20 0 13 1;
#X restore 84 644 pd reverb;
#X obj 30 90 loadbang;
#X msg 30 113 0;
#X msg 189 460 1;
#X obj 84 154 mod 32;
#X obj 84 207 select 0 1 2 3 4 5 6 7 8 9 10 11 12 13 14 15 16 17 18
19 20 21 22 23 24 25 26 27 28 29 30 31 32, f 96;
#X obj 374 285 f 587.3;
#X obj 423 285 f 1174.7;
#X obj 478 285 f 880;
#X obj 515 285 f 784;
#X obj 552 285 f 1568;
#X obj 632 285 f 1480;
#X obj 595 285 f 880;
#X obj 675 285 f 880;
#X obj 761 285 f 1174.7;
#X obj 816 285 f 880;
#X obj 853 285 f 784;
#X obj 890 285 f 1568;
#X obj 970 285 f 1480;
#X obj 933 285 f 880;
#X obj 1013 285 f 880;
#X obj 712 285 f 659.3;
#X obj 1101 285 f 1174.7;
#X obj 1156 285 f 880;
#X obj 1193 285 f 784;
#X obj 1230 285 f 1568;
#X obj 1310 285 f 1480;
#X obj 1273 284 f 880;
#X obj 1353 285 f 880;
#X obj 1052 285 f 659.3;
#N canvas 456 35 999 406 notes 0;
#X obj 59 82 hradio 15 1 0 8 empty empty empty 0 -8 0 10 -262144 -1
-1 12;
#X obj 59 340 phasor~;
#X obj 108 340 * 1.5;
#X obj 11 180 f 587.3;
#X obj 60 180 f 1174.7;
#X obj 115 180 f 880;
#X obj 152 180 f 784;
#X obj 189 180 f 1568;
#X obj 269 180 f 1480;
#X obj 232 180 f 880;
#X obj 312 180 f 880;
#X obj 59 102 select 0 1 2 3 4 5 6 7 8 9 10 11 12 13 14 15 16 17 18
19 20 21 22 23 24 25 26 27 28 29 30 31 32, f 96;
#X obj 275 218 f 587.3;
#X obj 324 218 f 1174.7;
#X obj 379 218 f 880;
#X obj 416 218 f 784;
#X obj 453 218 f 1568;
#X obj 533 218 f 1480;
#X obj 496 218 f 880;
#X obj 576 218 f 880;
#X obj 402 180 f 1174.7;
#X obj 457 180 f 880;
#X obj 494 180 f 784;
#X obj 531 180 f 1568;
#X obj 611 180 f 1480;
#X obj 574 180 f 880;
#X obj 654 180 f 880;
#X obj 353 180 f 659.3;
#X obj 663 218 f 1174.7;
#X obj 718 218 f 880;
#X obj 755 218 f 784;
#X obj 792 218 f 1568;
#X obj 872 218 f 1480;
#X obj 835 217 f 880;
#X obj 915 218 f 880;
#X obj 614 218 f 659.3;
#X obj 60 45 inlet~;
#X connect 0 0 11 0;
#X connect 3 0 1 0;
#X connect 3 0 2 0;
#X connect 4 0 1 0;
#X connect 4 0 2 0;
#X connect 5 0 1 0;
#X connect 5 0 2 0;
#X connect 6 0 1 0;
#X connect 6 0 2 0;
#X connect 7 0 1 0;
#X connect 7 0 2 0;
#X connect 8 0 1 0;
#X connect 8 0 2 0;
#X connect 9 0 1 0;
#X connect 9 0 2 0;
#X connect 10 0 1 0;
#X connect 10 0 2 0;
#X connect 11 0 3 0;
#X connect 11 1 4 0;
#X connect 11 2 5 0;
#X connect 11 3 6 0;
#X connect 11 4 7 0;
#X connect 11 5 9 0;
#X connect 11 6 8 0;
#X connect 11 7 10 0;
#X connect 11 8 12 0;
#X connect 11 9 13 0;
#X connect 11 10 14 0;
#X connect 11 11 15 0;
#X connect 11 12 16 0;
#X connect 11 13 18 0;
#X connect 11 14 17 0;
#X connect 11 15 19 0;
#X connect 11 16 27 0;
#X connect 11 17 20 0;
#X connect 11 18 21 0;
#X connect 11 19 22 0;
#X connect 11 20 23 0;
#X connect 11 21 25 0;
#X connect 11 22 24 0;
#X connect 11 23 26 0;
#X connect 11 24 35 0;
#X connect 11 25 28 0;
#X connect 11 26 29 0;
#X connect 11 27 30 0;
#X connect 11 28 31 0;
#X connect 11 29 33 0;
#X connect 11 30 32 0;
#X connect 11 31 34 0;
#X connect 12 0 1 0;
#X connect 12 0 2 0;
#X connect 13 0 1 0;
#X connect 13 0 2 0;
#X connect 14 0 1 0;
#X connect 14 0 2 0;
#X connect 15 0 1 0;
#X connect 15 0 2 0;
#X connect 16 0 1 0;
#X connect 16 0 2 0;
#X connect 17 0 1 0;
#X connect 17 0 2 0;
#X connect 18 0 1 0;
#X connect 18 0 2 0;
#X connect 19 0 1 0;
#X connect 19 0 2 0;
#X connect 20 0 1 0;
#X connect 20 0 2 0;
#X connect 21 0 1 0;
#X connect 21 0 2 0;
#X connect 22 0 1 0;
#X connect 22 0 2 0;
#X connect 23 0 1 0;
#X connect 23 0 2 0;
#X connect 24 0 1 0;
#X connect 24 0 2 0;
#X connect 25 0 1 0;
#X connect 25 0 2 0;
#X connect 26 0 1 0;
#X connect 26 0 2 0;
#X connect 27 0 1 0;
#X connect 27 0 2 0;
#X connect 28 0 1 0;
#X connect 28 0 2 0;
#X connect 29 0 1 0;
#X connect 29 0 2 0;
#X connect 30 0 1 0;
#X connect 30 0 2 0;
#X connect 31 0 1 0;
#X connect 31 0 2 0;
#X connect 32 0 1 0;
#X connect 32 0 2 0;
#X connect 33 0 1 0;
#X connect 33 0 2 0;
#X connect 34 0 1 0;
#X connect 34 0 2 0;
#X connect 35 0 1 0;
#X connect 35 0 2 0;
#X restore 843 37 pd notes;
#X connect 0 0 1 0;
#X connect 0 0 27 0;
#X connect 1 0 0 1;
#X connect 2 0 28 0;
#X connect 3 0 10 0;
#X connect 5 0 23 0;
#X connect 6 0 5 1;
#X connect 7 0 0 0;
#X connect 8 0 7 0;
#X connect 9 0 5 2;
#X connect 10 0 5 0;
#X connect 11 0 10 1;
#X connect 11 0 12 0;
#X connect 13 0 26 0;
#X connect 13 0 14 0;
#X connect 14 0 9 0;
#X connect 15 0 3 0;
#X connect 15 0 6 0;
#X connect 16 0 3 0;
#X connect 16 0 6 0;
#X connect 17 0 3 0;
#X connect 17 0 6 0;
#X connect 18 0 3 0;
#X connect 18 0 6 0;
#X connect 19 0 3 0;
#X connect 19 0 6 0;
#X connect 20 0 3 0;
#X connect 20 0 6 0;
#X connect 21 0 3 0;
#X connect 21 0 6 0;
#X connect 22 0 3 0;
#X connect 22 0 6 0;
#X connect 23 0 4 0;
#X connect 23 0 4 1;
#X connect 24 0 25 0;
#X connect 25 0 27 0;
#X connect 26 0 11 0;
#X connect 27 0 2 0;
#X connect 28 0 15 0;
#X connect 28 1 16 0;
#X connect 28 2 17 0;
#X connect 28 3 18 0;
#X connect 28 4 19 0;
#X connect 28 5 21 0;
#X connect 28 6 20 0;
#X connect 28 7 22 0;
#X connect 28 8 29 0;
#X connect 28 9 30 0;
#X connect 28 10 31 0;
#X connect 28 11 32 0;
#X connect 28 12 33 0;
#X connect 28 13 35 0;
#X connect 28 14 34 0;
#X connect 28 15 36 0;
#X connect 28 16 44 0;
#X connect 28 17 37 0;
#X connect 28 18 38 0;
#X connect 28 19 39 0;
#X connect 28 20 40 0;
#X connect 28 21 42 0;
#X connect 28 22 41 0;
#X connect 28 23 43 0;
#X connect 28 24 52 0;
#X connect 28 25 45 0;
#X connect 28 26 46 0;
#X connect 28 27 47 0;
#X connect 28 28 48 0;
#X connect 28 29 50 0;
#X connect 28 30 49 0;
#X connect 28 31 51 0;
#X connect 29 0 3 0;
#X connect 29 0 6 0;
#X connect 30 0 3 0;
#X connect 30 0 6 0;
#X connect 31 0 3 0;
#X connect 31 0 6 0;
#X connect 32 0 3 0;
#X connect 32 0 6 0;
#X connect 33 0 3 0;
#X connect 33 0 6 0;
#X connect 34 0 3 0;
#X connect 34 0 6 0;
#X connect 35 0 3 0;
#X connect 35 0 6 0;
#X connect 36 0 3 0;
#X connect 36 0 6 0;
#X connect 37 0 3 0;
#X connect 37 0 6 0;
#X connect 38 0 3 0;
#X connect 38 0 6 0;
#X connect 39 0 3 0;
#X connect 39 0 6 0;
#X connect 40 0 3 0;
#X connect 40 0 6 0;
#X connect 41 0 3 0;
#X connect 41 0 6 0;
#X connect 42 0 3 0;
#X connect 42 0 6 0;
#X connect 43 0 3 0;
#X connect 43 0 6 0;
#X connect 44 0 3 0;
#X connect 44 0 6 0;
#X connect 45 0 3 0;
#X connect 45 0 6 0;
#X connect 46 0 3 0;
#X connect 46 0 6 0;
#X connect 47 0 3 0;
#X connect 47 0 6 0;
#X connect 48 0 3 0;
#X connect 48 0 6 0;
#X connect 49 0 3 0;
#X connect 49 0 6 0;
#X connect 50 0 3 0;
#X connect 50 0 6 0;
#X connect 51 0 3 0;
#X connect 51 0 6 0;
#X connect 52 0 3 0;
#X connect 52 0 6 0;
#X restore 78 673 pd SweetChildOMine;
#X text 76 605 NOW LETS PLAY SOME SWEET CHILD O MINE!;
#X obj 30 -6 loadbang;
#X msg 30 19 0;
#X obj 73 59 tgl 15 0 empty empty empty 17 7 0 10 -262144 -1 -1 0 1
;
#N canvas 368 23 800 628 metronome 0;
#X obj 519 88 noise~;
#X obj 153 550 dac~;
#X obj 153 125 line~;
#X obj 181 337 *~;
#X text 627 98 Noise Vol;
#X floatatom 181 272 5 0 0 0 - - -, f 5;
#X obj 181 295 osc~;
#X text 215 242 oscillator frequency;
#X obj 153 437 -~;
#X obj 153 374 *~;
#X obj 519 152 *~;
#X obj 555 118 hsl 128 15 0 1 0 0 empty empty empty -2 -8 0 10 -262144
-1 -1 0 1;
#X obj 153 -81 f;
#X obj 189 -81 + 1, f 5;
#X obj 153 -7 hradio 15 1 0 4 empty empty empty 0 -8 0 10 -262144 -1
-1 3;
#X obj 153 47 f;
#X obj 177 47 f;
#X floatatom 563 145 5 0 0 0 - - -, f 5;
#X obj 230 290 hsl 128 15 0 1 0 0 empty empty empty -2 -8 0 10 -262144
-1 -1 1283 1;
#X floatatom 238 317 5 0 0 0 - - -, f 5;
#X text 313 270 Osc Vol;
#X obj 153 401 *~;
#X obj 216 365 hsl 128 15 0 1 0 0 empty empty empty -2 -8 0 10 -262144
-1 -1 2984 1;
#X floatatom 212 394 5 0 0 0 - - -, f 5;
#X obj 153 -103 metro 500;
#X obj 407 151 loadbang;
#X obj 80 -97 loadbang;
#X msg 80 -72 0;
#X msg 568 87 0.818;
#X msg 227 267 0.101;
#X msg 212 342 0.235;
#X msg 230 95 150 \, 0 160;
#X obj 153 -160 r onOffMetronome;
#X obj 153 -36 mod 4;
#X obj 153 13 select 0 1 2 3;
#X obj 202 47 f;
#X obj 226 47 f;
#X msg 181 246 0;
#X msg 153 95 400 \, 0 400;
#X connect 0 0 10 0;
#X connect 2 0 9 0;
#X connect 3 0 9 1;
#X connect 5 0 6 0;
#X connect 6 0 3 0;
#X connect 8 0 1 0;
#X connect 8 0 1 1;
#X connect 9 0 21 0;
#X connect 11 0 10 1;
#X connect 11 0 17 0;
#X connect 12 0 13 0;
#X connect 12 0 33 0;
#X connect 13 0 12 1;
#X connect 14 0 34 0;
#X connect 15 0 38 0;
#X connect 16 0 31 0;
#X connect 18 0 19 0;
#X connect 18 0 3 1;
#X connect 21 0 8 0;
#X connect 22 0 23 0;
#X connect 22 0 21 1;
#X connect 24 0 12 0;
#X connect 25 0 37 0;
#X connect 25 0 29 0;
#X connect 25 0 30 0;
#X connect 26 0 27 0;
#X connect 27 0 33 0;
#X connect 28 0 11 0;
#X connect 29 0 18 0;
#X connect 30 0 22 0;
#X connect 31 0 2 0;
#X connect 32 0 24 0;
#X connect 33 0 14 0;
#X connect 34 0 15 0;
#X connect 34 1 16 0;
#X connect 34 2 35 0;
#X connect 34 3 36 0;
#X connect 35 0 31 0;
#X connect 36 0 31 0;
#X connect 37 0 5 0;
#X connect 38 0 2 0;
#X restore 73 104 pd metronome;
#X obj 73 79 s onOffMetronome;
#X msg 1 19 0;
#X text 69 29 First \, turn the metronome on;
#X connect 1 0 2 0;
#X connect 3 0 4 0;
#X connect 8 0 9 0;
#X connect 10 0 11 0;
#X connect 16 0 17 0;
#X connect 20 0 21 0;
#X connect 20 0 25 0;
#X connect 21 0 3 0;
#X connect 21 0 1 0;
#X connect 21 0 8 0;
#X connect 21 0 10 0;
#X connect 21 0 22 0;
#X connect 22 0 24 0;
#X connect 25 0 16 0;
